Coordinates
version=1
nRows=24
nColumns=24
inDegrees=yes

Units are S.I. units (second, meters, Newtons, ...)
Angles are in degrees.

endheader
time	pelvis_tilt	pelvis_list	pelvis_rotation	pelvis_tx	pelvis_ty	pelvis_tz	hip_flexion_r	hip_adduction_r	hip_rotation_r	knee_angle_r	ankle_angle_r	subtalar_angle_r	mtp_angle_r	hip_flexion_l	hip_adduction_l	hip_rotation_l	knee_angle_l	ankle_angle_l	subtalar_angle_l	mtp_angle_l	lumbar_extension	lumbar_bending	lumbar_rotation
      1.50033333	     -3.03706132	      7.76588534	     -0.66695417	      0.38665786	      0.89857752	      0.30827839	     18.35423244	    -13.73262826	     -9.35709369	    -71.04964922	      7.40693766	      9.59903247	     12.29911031	     13.11296542	     12.48062857	     -3.34953029	    -18.01061468	      9.47380180	     -8.32556911	      0.53334658	     -2.04802414	    -12.39992055	      2.84645429
      1.50450000	     -2.98980818	      7.63892389	     -0.39265823	      0.39177507	      0.89975627	      0.30777467	     18.88010606	    -13.57876785	     -9.52194313	    -70.56983083	      8.00163205	      9.37766469	     11.83380355	     12.34670796	     12.43977969	     -2.95481629	    -17.36632202	      9.41051916	     -8.33073360	      0.65657824	     -2.10961185	    -12.25371923	      2.29675800
      1.50866667	     -2.91051060	      7.46778187	     -0.11037755	      0.39688100	      0.90099126	      0.30733160	     19.33800487	    -13.36010282	     -9.70168704	    -70.00118036	      8.54049887	      9.10001095	     11.60489933	     11.56880108	     12.32447612	     -2.62884118	    -16.77470741	      9.38413696	     -8.14442240	      0.72040405	     -2.22281516	    -12.11921160	      2.00562567
      1.51283333	     -2.83785278	      7.30446812	      0.17623623	      0.40195137	      0.90215527	      0.30683746	     19.80267305	    -13.16272536	     -9.88833540	    -69.40743944	      9.07185261	      8.82680646	     11.44494662	     10.80221161	     12.21772000	     -2.28589553	    -16.18186993	      9.37194736	     -8.00347698	      0.76451103	     -2.34110664	    -11.92265224	      1.68151626
      1.51700000	     -2.78800593	      7.17093026	      0.48051726	      0.40699477	      0.90323475	      0.30630941	     20.28854541	    -13.01267642	    -10.08406797	    -68.78979162	      9.60910257	      8.60570327	     11.10399738	     10.05142106	     12.14515835	     -1.88587526	    -15.55666145	      9.26121109	     -7.95418792	      0.84985559	     -2.43331990	    -11.78247663	      1.19457862
      1.52116667	     -2.70058823	      6.98712536	      0.77763617	      0.41205196	      0.90436012	      0.30581833	     20.70168888	    -12.79546344	    -10.28910756	    -68.08397096	     10.06285939	      8.33777231	     10.96521894	      9.27770441	     11.99701686	     -1.55589344	    -14.97538610	      9.27052937	     -7.78148544	      0.88711260	     -2.56230778	    -11.57997770	      0.94547624
      1.52533333	     -2.61398496	      6.82506030	      1.08604592	      0.41709147	      0.90543748	      0.30531015	     21.10750309	    -12.61298908	    -10.50343925	    -67.34615556	     10.50343769	      8.09807360	     10.80136842	      8.49899747	     11.86946087	     -1.19181342	    -14.37053252	      9.22290797	     -7.66079471	      0.92754630	     -2.69219633	    -11.40304457	      0.54820114
      1.52950000	     -2.54991830	      6.69222978	      1.39104265	      0.42210262	      0.90641720	      0.30478606	     21.54373860	    -12.46696267	    -10.69981480	    -66.59835755	     10.97778652	      7.87747535	      8.88677611	      7.72118007	     11.78066170	     -0.73162505	    -13.69993615	      9.04428742	     -7.80077061	      1.35604993	     -2.79106861	    -11.26932093	      0.21300194
      1.53366667	     -2.45820236	      6.51231052	      1.71424900	      0.42711831	      0.90741350	      0.30426309	     21.90896245	    -12.27528011	    -10.94037979	    -65.76071132	     11.34655073	      7.66761709	      8.83619833	      6.96919089	     11.60732363	     -0.43525899	    -13.15362649	      9.07534425	     -7.51298166	      1.37643339	     -2.92529613	    -11.06031022	     -0.18809954
      1.53783333	     -2.38684178	      6.33960846	      2.04281777	      0.43209183	      0.90832644	      0.30375651	     22.29032539	    -12.08783426	    -11.17265145	    -64.89053853	     11.71324944	      7.41861574	      8.78988157	      6.24805334	     11.43607377	     -0.11686256	    -12.60979553	      9.01615311	     -7.32763605	      1.39133105	     -3.04036674	    -10.88596466	     -0.50822853
      1.54200000	     -2.29156203	      6.18579759	      2.35227328	      0.43709137	      0.90921670	      0.30324908	     22.64047798	    -11.92515319	    -11.39109701	    -63.98677971	     11.99374206	      7.18545917	      8.71987714	      5.47559014	     11.28253896	      0.23264737	    -12.00997826	      8.98447235	     -7.20493896	      1.41059644	     -3.17111055	    -10.71612702	     -0.91811749
      1.54616667	     -2.21670376	      6.03200127	      2.67553055	      0.44204986	      0.91001951	      0.30272298	     23.00204488	    -11.77076903	    -11.62324851	    -63.05171099	     12.27398799	      6.93565132	      8.64939036	      4.74323955	     11.12060519	      0.57044942	    -11.43353041	      8.91528929	     -7.07387149	      1.42856763	     -3.28890864	    -10.51870985	     -1.27086849
      1.55033333	     -2.13488202	      5.88400285	      2.98926273	      0.44700839	      0.91078212	      0.30222833	     23.34403360	    -11.61632023	    -11.83892718	    -62.07247891	     12.49654031	      6.68685678	      8.57105448	      4.00477887	     10.95494851	      0.90594745	    -10.85604767	      8.86349337	     -6.95653749	      1.44807151	     -3.40390587	    -10.35780588	     -1.63253612
      1.55450000	     -2.05517424	      5.78142490	      3.29566995	      0.45196061	      0.91145171	      0.30170840	     23.69389075	    -11.52551934	    -12.04611019	    -61.09523635	     12.69410383	      6.46772343	      8.33538531	      3.24153363	     10.84238636	      1.31730975	    -10.21891808	      8.77770902	     -6.99651105	      1.50153078	     -3.51664266	    -10.23611165	     -2.17448243
      1.55866667	     -1.98220575	      5.62598899	      3.59894982	      0.45689294	      0.91209287	      0.30125731	     24.02139529	    -11.35244078	    -12.24603109	    -60.03409408	     12.82575470	      6.16683474	      8.24311909	      2.54130144	     10.64592971	      1.58875945	     -9.68426567	      8.74997130	     -6.81045264	      1.52439771	     -3.62020853	    -10.06249200	     -2.39085872
      1.56283333	     -1.90460660	      5.49479697	      3.89784619	      0.46183660	      0.91266961	      0.30079655	     24.33617876	    -11.21401279	    -12.44597509	    -58.95394184	     12.93267313	      5.85768281	      8.14144296	      1.82555098	     10.47203933	      1.87651675	     -9.12722442	      8.70776937	     -6.65946550	      1.54939635	     -3.73140559	     -9.90318067	     -2.71495097
      1.56700000	     -1.83528543	      5.37759329	      4.18976791	      0.46676345	      0.91316712	      0.30035786	     24.65362287	    -11.08706672	    -12.62853597	    -57.84838515	     13.00870247	      5.54298635	      8.03210506	      1.12326237	     10.30607968	      2.16049921	     -8.57210992	      8.66608702	     -6.52670694	      1.57647434	     -3.82907073	     -9.77122631	     -3.04786565
      1.57116667	     -1.76007269	      5.28228327	      4.45910349	      0.47170009	      0.91359249	      0.29993504	     24.96504724	    -10.98128017	    -12.78870669	    -56.73085692	     13.03066373	      5.21003126	      7.87028630	      0.39848263	     10.16073827	      2.45838213	     -7.98410941	      8.65402751	     -6.45063860	      1.61641361	     -3.93277728	     -9.64938460	     -3.43554692
      1.57533333	     -1.70035446	      5.18228076	      4.73670318	      0.47662033	      0.91395020	      0.29952923	     25.27321059	    -10.86668969	    -12.95049024	    -55.57061837	     13.04648923	      4.85764072	      7.70634515	     -0.28792026	     10.00081520	      2.72956308	     -7.43302512	      8.60685670	     -6.33693347	      1.65769906	     -4.01667016	     -9.53317958	     -3.74798790
      1.57950000	     -1.65684625	      5.08367045	      5.01464827	      0.48153205	      0.91423341	      0.29913730	     25.58210866	    -10.75245584	    -13.10768624	    -54.37261825	     13.04359656	      4.48442229	      7.57300054	     -0.93887852	      9.83484628	      2.96991646	     -6.91273356	      8.53479284	     -6.18946107	      1.69099443	     -4.08410235	     -9.42233312	     -4.01269608
      1.58366667	     -1.60662627	      4.99940714	      5.27077130	      0.48646966	      0.91445186	      0.29878234	     25.87896648	    -10.64536058	    -13.24475236	    -53.15942435	     13.00421397	      4.08896835	      7.43253205	     -1.60932458	      9.67894936	      3.20405440	     -6.37073264	      8.49734922	     -6.05745575	      1.72664980	     -4.15484506	     -9.32571904	     -4.29530453
      1.58783333	     -1.56271533	      4.92373057	      5.51714783	      0.49141287	      0.91459552	      0.29844099	     26.17280890	    -10.54478197	    -13.36999235	    -51.92509851	     12.94118127	      3.68042349	      7.28211046	     -2.27268987	      9.52812073	      3.43358753	     -5.82803335	      8.45900139	     -5.93157272	      1.76485712	     -4.22007591	     -9.23552297	     -4.57706313
      1.59200000	     -1.52641914	      4.86368945	      5.75679028	      0.49634341	      0.91466563	      0.29812607	     26.46445605	    -10.45542220	    -13.47543786	    -50.66769115	     12.86947368	      3.27052063	      7.12949341	     -2.91991675	      9.38946206	      3.64718103	     -5.30014046	      8.42153217	     -5.81021347	      1.80323121	     -4.27068587	     -9.16724635	     -4.83665217
      1.59616667	     -1.49232669	      4.80908837	      5.98335138	      0.50129177	      0.91467055	      0.29784397	     26.74733701	    -10.36470582	    -13.56824888	    -49.38931125	     12.78043082	      2.85008302	      6.97015545	     -3.56603718	      9.25161871	      3.85249194	     -4.77098590	      8.38578017	     -5.68976314	      1.84283532	     -4.31962596	     -9.10669161	     -5.08684168
